<?xml version="1.0" encoding="UTF-8"?>
<svg id="Capa_1" xmlns="http://www.w3.org/2000/svg" version="1.1" viewBox="0 0 485.2 62.93">
  <!-- Generator: Adobe Illustrator 29.3.1, SVG Export Plug-In . SVG Version: 2.1.0 Build 151)  -->
  <defs>
    <style>
      .st0 {
        fill: #2fa8e1;
      }

      .st1 {
        fill: #24417f;
      }
    </style>
  </defs>
  <g>
    <path class="st1" d="M471.95,30.02c5.96-2.04,8.82-7.05,8.82-11.95,0-8.68-7.79-14.61-19.13-14.61h-21.98v41.09c0,7.78,7.5,14.04,14.84,14.04l8.93.04c11.57,0,19.3-6.64,19.3-14.92,0-5.62-3.32-11.44-10.77-13.69ZM450.1,12.48h10.87c5.49,0,8.77,3.11,8.77,7.05s-4.11,6.95-9.24,6.95h-10.4v-13.99ZM455.73,48.7c-3.09,0-5.6-2.23-5.6-5.39v-8.34h13.18c5.25,0,8.63,3.32,8.63,7.15s-3.27,6.58-8.86,6.58h-7.35Z"/>
    <path class="st1" d="M411.66,3.45c-8.86,0-15.3,2.92-19.83,8.06l5.34,7.16c3.42-3.53,7.35-5.85,13.09-5.85,7.45,0,11.88,4.43,11.88,11.39v2.72h-10.57c-12.89,0-21.04,5.95-21.04,15.82s6.64,15.82,16.61,15.82c7.55,0,12.78-3.63,14.8-7.66h.4c-.1,1.31-.2,3.63-.2,4.74v1.31h10.57V23.91c0-12.7-8.05-20.46-21.04-20.46ZM422.13,39.94c0,5.24-4.63,9.98-11.98,9.98-5.74,0-8.66-2.92-8.66-7.56s3.52-7.56,10.67-7.56h9.97v5.14Z"/>
    <path class="st1" d="M112.15,28.99c-1.03,5.14-2.13,10.06-2.06,12.36h-.37c-.07-2.16-1.47-7.15-2.79-12.22,0,0-3.82-14.41-5.26-19.47-.87-3.06-3.54-5.23-6.66-5.23h0c-3.15,0-6.16,2.08-6.94,5.19-1.26,5.03-4.77,19.5-4.77,19.5-1.25,5.07-2.57,9.91-2.64,12.22h-.37c.07-2.01-1.1-7.22-2.13-12.36l-5.22-25.25h-10.95l12.5,53.41h10.43l6.98-26.37c1.29-4.96,2.73-9.84,2.72-12.07,0,0,.07-.08.2-.08s.17.08.17.08c0,0,0,0,0,0,.13,2.23,1.56,7.11,2.93,12l7.27,26.44h10.35l12.5-53.41h-10.85l-5.02,25.25Z"/>
    <path class="st1" d="M152.1,3.45c-8.86,0-15.3,2.92-19.83,8.06l5.34,7.16c3.42-3.53,7.35-5.85,13.09-5.85,7.45,0,11.88,4.43,11.88,11.39v2.72h-10.57c-12.89,0-21.04,5.95-21.04,15.82s6.64,15.82,16.61,15.82c7.55,0,12.78-3.63,14.8-7.66h.4c-.1,1.31-.2,3.63-.2,4.74v1.31h10.57V23.91c0-12.7-8.05-20.46-21.04-20.46ZM162.57,39.94c0,5.24-4.63,9.98-11.98,9.98-5.74,0-8.66-2.92-8.66-7.56s3.52-7.56,10.67-7.56h9.97v5.14Z"/>
    <path class="st1" d="M196.58,12.32c4.76,0,7.97,3.12,9.72,7.26l7.48-4.54c-2.62-6.45-8.06-11.59-17.39-11.59s-16.32,6.55-16.32,14.71,4.86,12.09,10.88,15.02l5.83,2.82c4.66,2.22,6.61,4.13,6.61,7.16,0,4.03-2.91,6.35-7.09,6.35-5.93,0-9.52-4.23-10.59-7.96l-7.77,5.04c2.04,5.85,7.48,11.99,17.97,11.99,11.08,0,17.88-6.35,17.88-15.42,0-7.96-4.66-11.89-10.78-14.92l-6.41-3.23c-4.66-2.32-6.61-3.93-6.61-6.95,0-3.53,2.72-5.74,6.61-5.74Z"/>
    <path class="st1" d="M238.09,12.32c4.76,0,7.97,3.12,9.72,7.26l7.48-4.54c-2.62-6.45-8.06-11.59-17.39-11.59s-16.32,6.55-16.32,14.71,4.86,12.09,10.88,15.02l5.83,2.82c4.66,2.22,6.61,4.13,6.61,7.16,0,4.03-2.91,6.35-7.09,6.35-5.93,0-9.52-4.23-10.59-7.96l-7.77,5.04c2.04,5.85,7.48,11.99,17.97,11.99,11.08,0,17.88-6.35,17.88-15.42,0-7.96-4.66-11.89-10.78-14.92l-6.41-3.23c-4.66-2.32-6.61-3.93-6.61-6.95,0-3.53,2.72-5.74,6.61-5.74Z"/>
    <path class="st1" d="M284.9,3.45c-14.62,0-24.72,11.49-24.72,27.51s9.15,27.62,24.81,27.62c8.68,0,14.91-2.22,20.47-8.16l-5.19-7.56c-3.87,4.23-8.4,6.05-14.62,6.05-8.59,0-13.59-5.34-14.81-13.81h36.61c.28-1.11.38-2.92.38-4.13,0-15.92-8.87-27.51-22.93-27.51ZM270.84,27.04c1.04-8.57,5.94-14.01,13.87-14.01s12.45,5.75,13.02,14.01h-26.89Z"/>
    <path class="st1" d="M324.4,11.48v-6.48h-9.96v52.15h11.2V23.63c0-7.09,4.58-9.8,11.1-10.23,2.4-.16,7.89.1,9.55.61V4.29c-1.35-.41-5.41-.84-9.45-.71-6.43.2-10.27,3.34-12.45,7.9Z"/>
    <path class="st1" d="M385.13,47.38v-.17h-14.72c-1.39-.09-2.54-.22-3.21-.39-2.58-.68-3.35-3.85-3.35-6.98V3.74h-10.49v37.18c0,9.23,4.32,15.31,13.37,16.13v.02h.2c.62.05,1.25.08,1.91.08h16.3s0-9.76,0-9.76c0,0-.01,0-.02,0Z"/>
  </g>
  <g>
    <g>
      <path class="st0" d="M26.47,16.55l-4.95,5.87c2.1,1.01,3.89,2.54,5.24,4.41l4.69-5.38c-2.24-.93-4.02-2.69-4.98-4.9Z"/>
      <ellipse class="st0" cx="34.76" cy="12.92" rx="9.39" ry="9.32" transform="translate(21.27 47.46) rotate(-89.05)"/>
      <path class="st0" d="M23.81,43.88l9.22,5.42c.12-2.59,1.2-4.9,2.88-6.62l-8.83-4.79c-.09-.05-.23-.13-.34-.16-1.76-.49-4.07,3.67-3.46,5.52.08.23.32.51.53.63Z"/>
      <ellipse class="st0" cx="41.73" cy="49" rx="9.39" ry="9.32" transform="translate(-7.82 90.08) rotate(-89.25)"/>
    </g>
    <path class="st0" d="M23.38,44.85c-1.81-.74-2.07-2.76-.84-5.27,1.16-2.37,2.92-3.5,4.4-2.86.43.18.77.49,1.04.87.07.1.22.06.24-.06.08-.6.13-1.21.13-1.83,0-7.68-6.46-13.84-14.22-13.31-6.55.45-11.85,5.78-12.3,12.36-.54,7.79,5.6,14.28,13.24,14.28,3.6,0,6.86-1.44,9.25-3.78.07-.07.03-.2-.08-.21-.3-.02-.59-.08-.87-.2Z"/>
  </g>
</svg>